<svg width="16" height="16" viewBox="0 0 16 16" fill="none" xmlns="http://www.w3.org/2000/svg">
<path d="M8.09375 0.59375C3.95829 0.59375 0.59375 3.95829 0.59375 8.09375C0.59375 12.2292 3.95829 15.5938 8.09375 15.5938C12.2292 15.5938 15.5938 12.2292 15.5938 8.09375C15.5938 3.95829 12.2292 0.59375 8.09375 0.59375ZM10.8093 9.99363C10.8651 10.0467 10.9097 10.1103 10.9406 10.1809C10.9714 10.2515 10.9878 10.3275 10.9888 10.4045C10.9897 10.4815 10.9753 10.5579 10.9463 10.6292C10.9173 10.7006 10.8743 10.7654 10.8198 10.8198C10.7654 10.8743 10.7006 10.9173 10.6292 10.9463C10.5579 10.9753 10.4815 10.9897 10.4045 10.9888C10.3275 10.9878 10.2515 10.9714 10.1809 10.9406C10.1103 10.9097 10.0467 10.8651 9.99363 10.8093L8.09375 8.90974L6.19387 10.8093C6.0848 10.9129 5.93956 10.9698 5.78912 10.9679C5.63868 10.9659 5.49494 10.9053 5.38856 10.7989C5.28217 10.6926 5.22155 10.5488 5.21963 10.3984C5.2177 10.2479 5.27462 10.1027 5.37825 9.99363L7.27776 8.09375L5.37825 6.19387C5.27462 6.0848 5.2177 5.93956 5.21963 5.78912C5.22155 5.63868 5.28217 5.49494 5.38856 5.38856C5.49494 5.28217 5.63868 5.22155 5.78912 5.21963C5.93956 5.2177 6.0848 5.27462 6.19387 5.37825L8.09375 7.27776L9.99363 5.37825C10.1027 5.27462 10.2479 5.2177 10.3984 5.21963C10.5488 5.22155 10.6926 5.28217 10.7989 5.38856C10.9053 5.49494 10.9659 5.63868 10.9679 5.78912C10.9698 5.93956 10.9129 6.0848 10.8093 6.19387L8.90974 8.09375L10.8093 9.99363Z" fill="#A0A3BD"/>
</svg>
